<?xml version="1.0" encoding="UTF-8"?><svg id="Layer_1" xmlns="http://www.w3.org/2000/svg" viewBox="0 0 100 100"><defs><style>.cls-1{fill:#000000;}</style></defs><path class="cls-1" d="M21.64,29.56v.02c.01,10.04,8.16,18.18,18.2,18.17,10.05,0,18.19-8.15,18.19-18.2s-8.15-18.19-18.2-18.19-18.19,8.15-18.19,18.2Z"/><path class="cls-1" d="M98,49.58l-5.37-5.36c-1.33-1.32-3.48-1.32-4.81,0l-5.38,5.38-.58,.58,10.19,10.2,5.95-5.95c1.32-1.34,1.32-3.49,0-4.82v-.03Z"/><path class="cls-1" d="M59.03,72.99v-.03l-.97,8.68c-.14,1.24,.75,2.36,2,2.5,.17,.02,.34,.02,.5,0l8.66-.97,19.61-19.55-10.2-10.22-19.61,19.59Z"/><path class="cls-1" d="M52.59,52.33v-.03h-2.38c-6.58,3.03-14.15,3.03-20.73,0h-2.37c-10.56,0-19.11,8.57-19.11,19.12v5.94c0,3.77,3.06,6.82,6.82,6.82H53.9c-.35-.97-.48-2-.37-3.03l.97-8.66,.18-1.6,1.12-1.12,10.99-10.97c-3.58-4.1-8.76-6.46-14.2-6.47Z"/></svg>