<?xml version="1.0" encoding="UTF-8"?><svg id="Layer_1" xmlns="http://www.w3.org/2000/svg" viewBox="0 0 100 100"><defs><style>.cls-1{fill:#000000;}</style></defs><path class="cls-1" d="M30.93,45.95h3.9c1.29,0,2.33,1.04,2.33,2.33v3.9c0,1.29-1.04,2.33-2.33,2.33h-3.9c-1.29,0-2.33-1.04-2.33-2.33v-3.9c0-1.29,1.04-2.33,2.33-2.33Z"/><path class="cls-1" d="M48.05,54.51h3.91c1.29,0,2.33-1.04,2.33-2.33v-3.9c0-1.29-1.04-2.33-2.32-2.33h-3.91c-1.29,0-2.33,1.04-2.33,2.33v3.9c0,1.29,1.04,2.33,2.33,2.33Z"/><path class="cls-1" d="M79.97,93.02c4.72-.01,8.55-3.84,8.56-8.56V24.53c0-4.72-3.83-8.55-8.55-8.57h0s-4.28,0-4.28,0v-4.29c0-2.36-1.92-4.28-4.28-4.28s-4.28,1.92-4.28,4.28v4.26s-.01,.03-.03,.03H32.9s-.03-.01-.03-.03v-4.26c0-2.36-1.92-4.28-4.28-4.28s-4.28,1.92-4.28,4.28v4.26s-.01,.03-.03,.03h-4.24c-4.72,0-8.55,3.84-8.54,8.56l-.04,59.95c.01,4.72,3.84,8.54,8.56,8.54h59.95ZM20.03,40.81c0-1.9,1.54-3.43,3.43-3.43h53.08c1.9,0,3.43,1.54,3.43,3.43v40.25c0,1.9-1.53,3.43-3.43,3.43H23.46c-1.9,0-3.43-1.54-3.43-3.43V40.81Z"/><path class="cls-1" d="M65.19,45.95h3.9c1.29,0,2.33,1.04,2.33,2.33v3.9c0,1.29-1.04,2.33-2.33,2.33h-3.9c-1.29,0-2.33-1.04-2.33-2.33v-3.9c0-1.29,1.04-2.33,2.33-2.33Z"/></svg>