<?xml version="1.0" encoding="UTF-8"?><svg id="Layer_1" xmlns="http://www.w3.org/2000/svg" viewBox="0 0 100 100"><defs><style>.cls-1{fill:#000000;}</style></defs><path class="cls-1" d="M45.78,80.4c.16,0,.32,0,.48,0,7.17-.1,13.77-2.49,19.16-6.42l10.97,10.82c1.12,1.1,2.57,1.65,4.02,1.65s2.95-.57,4.07-1.7c2.22-2.25,2.19-5.87-.06-8.09l-11.04-10.88c3.74-5.49,5.92-12.12,5.81-19.26h0c-.15-18.22-15.03-32.94-33.18-32.94h-.24s-.44,0-.47,0c-8.93,.13-17.27,3.72-23.49,10.12-6.22,6.4-9.58,14.84-9.45,23.77,.26,18.27,15.2,32.95,33.42,32.94ZM30.03,31.66c4.09-4.21,9.58-6.58,15.8-6.66h.16c11.93,0,21.69,9.67,21.78,21.62v.04c.17,12.12-9.54,22.12-21.66,22.29-.11,0-.21,0-.32,0-11.97,0-21.8-9.65-21.97-21.66-.08-5.87,2.12-11.42,6.22-15.63Z"/></svg>