<svg xmlns="http://www.w3.org/2000/svg" width="430" height="430" style="width:100%;height:100%;transform:translate3d(0,0,0);content-visibility:visible" viewBox="0 0 430 430"><defs><filter id="a" width="100%" height="100%" x="0%" y="0%" filterUnits="objectBoundingBox"><feComponentTransfer in="SourceGraphic"><feFuncA tableValues="1.0 0.0" type="table"/></feComponentTransfer></filter><filter id="c" width="100%" height="100%" x="0%" y="0%" filterUnits="objectBoundingBox"><feComponentTransfer in="SourceGraphic"><feFuncA tableValues="1.0 0.0" type="table"/></feComponentTransfer></filter><filter id="e" width="100%" height="100%" x="0%" y="0%" filterUnits="objectBoundingBox"><feComponentTransfer in="SourceGraphic"><feFuncA tableValues="1.0 0.0" type="table"/></feComponentTransfer></filter><filter id="g" width="100%" height="100%" x="0%" y="0%" filterUnits="objectBoundingBox"><feComponentTransfer in="SourceGraphic"><feFuncA tableValues="1.0 0.0" type="table"/></feComponentTransfer></filter><path id="b" style="display:none"/><path id="d" style="display:none"/><path id="f" style="display:none"/><path id="h" fill="#FFC638" d="M193.95 46.34C183.44 32.3 131 110.25 153.5 123.48c-12.25 5.02-15.75 6.02-25.87 14.78 4.11 15.85 10.38 22.39 26.97 28.04-16.6 5.65-20.11 14.69-24.22 30.55 12.65 10.42 20.87 11.95 37.62 6.77-10.11 14.34-10.17 22.19-4.16 37.44 16.34.99 25.35-2.52 35.86-16.56.25 17.55 1.99 27.54 15.81 36.34 13.8-8.8 15.49-12.09 22.54-21.59 7.07 28.88 80.51 116.05 96.87 115.05C365 328 423.21 235.95 407.49 138.62 378-44 194.2 28.81 193.95 46.34" class="secondary" style="display:block"/><mask id="o" mask-type="alpha"><g filter="url(#a)"><path fill="#fff" d="M0 0h430v430H0z" opacity="0"/><use xmlns:ns1="http://www.w3.org/1999/xlink" ns1:href="#b"/></g></mask><mask id="n" mask-type="alpha"><g filter="url(#c)"><path fill="#fff" d="M0 0h430v430H0z" opacity="0"/><use xmlns:ns2="http://www.w3.org/1999/xlink" ns2:href="#d"/></g></mask><mask id="m" mask-type="alpha"><g filter="url(#e)"><path fill="#fff" d="M0 0h430v430H0z" opacity="0"/><use xmlns:ns3="http://www.w3.org/1999/xlink" ns3:href="#f"/></g></mask><mask id="k" mask-type="alpha"><g filter="url(#g)"><path fill="#fff" d="M0 0h430v430H0z" opacity="0"/><use xmlns:ns4="http://www.w3.org/1999/xlink" ns4:href="#h"/></g></mask><clipPath id="i"><path d="M0 0h430v430H0z"/></clipPath><clipPath id="l"><path d="M0 0h430v430H0z"/></clipPath><clipPath id="j"><path d="M0 0h430v430H0z"/></clipPath></defs><g clip-path="url(#i)"><g clip-path="url(#j)" style="display:block"><path fill="none" stroke="#2CA48D" stroke-linecap="round" stroke-linejoin="round" stroke-width="7" d="M0-95.701V44.326" class="primary" style="display:block" transform="translate(214 328.418)"/><path fill="#FFC638" d="M290.39 168.3c16.61-5.65 28.36-19.19 32.47-35.06-12.64-10.41-30.12-14.44-46.87-9.26 10.12-14.34 11.68-32.2 5.67-47.44-16.35-1-32.85 6.02-43.36 20.05-.25-17.54-9.49-32.9-23.31-41.71-13.8 8.81-23.04 24.18-23.29 41.71-10.51-14.04-27.02-21.05-43.37-20.04-6 15.23-4.43 33.1 5.67 47.43-16.76-5.18-34.22-1.15-46.87 9.28 4.11 15.85 15.88 29.39 32.47 35.04-16.6 5.65-28.36 19.19-32.47 35.05 12.65 10.42 30.12 14.45 46.87 9.27-10.11 14.34-11.67 32.19-5.66 47.44 16.34.99 32.85-6.02 43.36-20.06.25 17.55 9.49 32.91 23.31 41.72 13.8-8.81 23.04-24.19 23.29-41.72 10.51 14.05 27.01 21.05 43.37 20.05 6-15.24 4.43-33.1-5.68-47.43 16.76 5.18 34.23 1.15 46.87-9.28-4.11-15.85-15.88-29.39-32.47-35.04m-132.1 0c0 31.32 25.39 56.71 56.71 56.71s56.71-25.39 56.71-56.71-25.39-56.71-56.71-56.71-56.71 25.39-56.71 56.71m107.18 25.2h.01m-22.13-15.75h.01m-9.46 18.9h.01m-.01-37.8h.01m-18.92 0h.01m-9.46 18.9h.01m-9.46 18.9h.01m-6.31-53.56h.01m-12.61 25.21h.01" class="secondary" style="display:block"/><g mask="url(#k)" opacity=".5" style="mix-blend-mode:multiply;display:block"><path fill="#FFC638" d="M290.39 168.3c16.61-5.65 28.36-19.19 32.47-35.06-12.64-10.41-30.12-14.44-46.87-9.26 10.12-14.34 11.68-32.2 5.67-47.44-16.35-1-32.85 6.02-43.36 20.05-.25-17.54-9.49-32.9-23.31-41.71-13.8 8.81-23.04 24.18-23.29 41.71-10.51-14.04-27.02-21.05-43.37-20.04-6 15.23-4.43 33.1 5.67 47.43-16.76-5.18-34.22-1.15-46.87 9.28 4.11 15.85 15.88 29.39 32.47 35.04-16.6 5.65-28.36 19.19-32.47 35.05 12.65 10.42 30.12 14.45 46.87 9.27-10.11 14.34-11.67 32.19-5.66 47.44 16.34.99 32.85-6.02 43.36-20.06.25 17.55 9.49 32.91 23.31 41.72 13.8-8.81 23.04-24.19 23.29-41.72 10.51 14.05 27.01 21.05 43.37 20.05 6-15.24 4.43-33.1-5.68-47.43 16.76 5.18 34.23 1.15 46.87-9.28-4.11-15.85-15.88-29.39-32.47-35.04m-132.1 0c0 31.32 25.39 56.71 56.71 56.71s56.71-25.39 56.71-56.71-25.39-56.71-56.71-56.71-56.71 25.39-56.71 56.71m107.18 25.2h.01m-22.13-15.75h.01m-9.46 18.9h.01m-.01-37.8h.01m-18.92 0h.01m-9.46 18.9h.01m-9.46 18.9h.01m-6.31-53.56h.01m-12.61 25.21h.01" class="secondary"/></g><g fill="#B16836" style="display:block"><path d="M271.706 167.729c0 31.32-25.39 56.7-56.71 56.7s-56.71-25.38-56.71-56.7 25.39-56.71 56.71-56.71 56.71 25.39 56.71 56.71" class="tertiary"/><path d="M39.267 52.347a56.6 56.6 0 0 1-10.92 3.3C-2.39 61.664-32.182 41.635-38.199 10.898S-24.178-49.633 6.559-55.65a56.6 56.6 0 0 1 11.357-1.062C-6.473-46.588-21.193-20.382-15.923 6.537s28.784 45.63 55.19 45.81" class="tertiary" opacity=".5" style="mix-blend-mode:multiply" transform="translate(197.553 167.726)"/></g><path fill="none" stroke="#FFC638" stroke-linecap="round" stroke-linejoin="round" stroke-width="9" d="M66.156 9.451h.007m-9.455 18.903h.007m-.004-37.805h.007M47.253 9.451h.007M37.798-9.453h.007m-.003-28.353h.007M28.35 9.451h.007m-9.459 18.903h.007m-6.307-53.558h.008M-.004 0h.008" class="secondary" style="display:block" transform="translate(177.194 168.298)"/><g fill="#2CA48D" style="display:block"><path d="M215.016 374.68h-.01c-14.52 3.63-37.66-2.57-59.55-17.26a113 113 0 0 1-3.74-2.61 120 120 0 0 1-3.58-2.68c-.59-.46-1.17-.91-1.74-1.37-1.71-1.38-3.37-2.78-4.95-4.2-.53-.48-1.05-.95-1.57-1.43q-2.43-2.235-4.62-4.53c-.4-.42-.8-.84-1.19-1.26-2.27-2.44-4.34-4.9-6.2-7.36-.38-.49-.74-.99-1.1-1.48-.3-.42-.59-.83-.88-1.25q-.15-.195-.27-.39c-.26-.37-.5-.74-.74-1.11q-.645-.96-1.23-1.92c-.24-.39-.47-.77-.69-1.16a.25.25 0 0 1-.07-.12c-.22-.37-.43-.73-.63-1.1-.25-.43-.48-.86-.7-1.29-.21-.38-.4-.77-.59-1.15-.11-.22-.22-.44-.32-.66-.21-.42-.41-.84-.59-1.26-.19-.41-.37-.82-.53-1.23a38 38 0 0 1-1.19-3.17c-.14-.41-.26-.81-.38-1.21-.02-.07-.04-.13-.06-.19-.12-.44-.24-.88-.35-1.32-.42-1.7.67-3.38 2.37-3.71.04-.01.09-.02.14-.03.35-.05.71-.1 1.07-.14.04 0 .08 0 .12-.01.24-.02.48-.05.72-.07.25-.03.52-.05.78-.07.11 0 .22-.01.33-.02.26-.02.519-.03.79-.04.28-.02.57-.03.86-.03 1.22-.03 2.48-.02 3.77.05q.465.015.93.06c1.01.06 2.03.16 3.08.29l1.37.18c.92.13 1.86.28 2.81.47 12.18 2.25 26.23 8.09 39.8 17.2 19.763 13.274 33.502 30.11 37.547 44.16h.003l.024.089q.193.68.356 1.35c.027.109.057.22.082.329q.186.788.328 1.562c.07.36.12.71.18 1.06.01.01.01.02.01.03" class="primary"/><path d="M48.775 32.886v.03c-14.52 3.63-37.66-2.57-59.55-17.26a113 113 0 0 1-3.74-2.61 120 120 0 0 1-3.58-2.68c-.59-.46-1.17-.91-1.74-1.37q-2.58-2.055-4.95-4.2c-.53-.48-1.05-.95-1.57-1.43q-2.43-2.235-4.62-4.53c-.4-.42-.8-.84-1.19-1.26-2.28-2.44-4.35-4.9-6.2-7.36-.38-.49-.74-.99-1.1-1.48-.3-.42-.59-.83-.88-1.25q-.15-.195-.27-.39c-.26-.37-.5-.74-.74-1.11q-.645-.96-1.23-1.92c-.24-.39-.47-.77-.69-1.16a.25.25 0 0 1-.07-.12c-.22-.37-.43-.73-.63-1.1-.25-.43-.48-.86-.7-1.29-.21-.38-.4-.77-.59-1.15-.11-.22-.22-.44-.32-.66-.21-.42-.41-.84-.59-1.26-.19-.41-.37-.82-.53-1.23a38 38 0 0 1-1.19-3.17c-.14-.41-.26-.81-.38-1.21-.02-.07-.04-.13-.06-.19-.12-.44-.24-.88-.35-1.32-.42-1.7.67-3.38 2.37-3.71.4-.06.8-.12 1.21-.17.04 0 .08 0 .12-.01.24-.02.48-.05.72-.07.25-.03.52-.05.78-.07.11 0 .22-.01.33-.02.26-.02.519-.03.79-.04.28-.02.57-.03.86-.03 1.22-.03 2.48-.02 3.77.05q.465.015.93.06c1.01.06 2.03.16 3.08.29l1.37.18c.93.14 1.86.29 2.81.47 4.05 14.05 17.8 30.89 37.57 44.16 13.57 9.1 27.61 14.94 39.78 17.2.33 1.13.59 2.24.79 3.33.07.36.12.71.18 1.06" class="primary" opacity=".5" style="mix-blend-mode:multiply" transform="translate(166.231 341.764)"/></g><g fill="#2CA48D" style="display:block"><path d="M312.475 311.97c-3.56 14.3-17.53 31.77-37.91 45.45-12.71 8.53-25.84 14.19-37.46 16.73-1.09.24-2.17.45-3.23.64-.31.05-.62.1-.92.15q-1.08.18-2.13.3c-.45.06-.88.11-1.32.15-.81.09-1.62.16-2.41.2-.37.03-.74.05-1.1.06-.22.01-.44.02-.65.02-3.77.11-7.24-.22-10.33-.99.13-.93.32-1.87.54-2.83.23-.95.51-1.93.83-2.91q.48-1.455 1.08-2.94a.3.3 0 0 1 .04-.1c.38-.92.8-1.85 1.25-2.79.28-.58.57-1.17.89-1.75a62 62 0 0 1 2.61-4.49c.61-.98 1.27-1.97 1.97-2.95.2-.29.4-.58.61-.86.27-.38.54-.76.83-1.13.23-.32.47-.64.72-.95.26-.34.53-.69.8-1.03q.78-.99 1.62-1.98c.32-.38.64-.77.98-1.15.4-.47.82-.94 1.26-1.42q.405-.465.84-.93a93 93 0 0 1 3.81-3.92c.41-.41.82-.81 1.24-1.2a125 125 0 0 1 5.11-4.58c1.18-1 2.4-1.99 3.65-2.97.65-.52 1.3-1.02 1.96-1.51q1.83-1.38 3.75-2.73c.7-.49 1.41-.98 2.13-1.46 18.3-12.28 37.48-18.63 51.76-18.25.29 0 .58.01.86.03.26.01.52.02.77.04.36.02.71.05 1.06.08.27.03.54.05.8.08.4.04.79.09 1.18.15.06.01.12.02.17.04.84.16 1.52.65 1.94 1.31.44.68.61 1.53.4 2.39" class="primary"/><path d="M48.535-32.182c-11.39 2.63-24.15 8.21-36.53 16.52-21.63 14.53-36.05 33.31-38.44 48.05-1.09.24-2.17.45-3.23.64-.31.05-.62.1-.92.15q-1.08.18-2.13.3c-.45.06-.88.11-1.32.15-.81.09-1.62.16-2.41.2-.37.03-.74.05-1.1.06-.22.01-.44.02-.65.02-3.77.11-7.24-.22-10.33-.99h-.01v-.03c.14-.91.32-1.85.55-2.8a28 28 0 0 1 .83-2.91q.465-1.455 1.08-2.94a.3.3 0 0 1 .04-.1c.38-.92.79-1.85 1.25-2.79.28-.58.57-1.17.89-1.75a49 49 0 0 1 1.76-3.12c.27-.45.55-.91.85-1.37.61-.98 1.27-1.97 1.97-2.95.2-.29.4-.58.61-.86.27-.38.54-.76.83-1.13.09-.13.18-.25.28-.38.14-.19.29-.38.44-.57.26-.34.53-.69.8-1.03q.78-.99 1.62-1.98c.32-.38.64-.77.98-1.15.4-.47.82-.94 1.26-1.42q.405-.465.84-.93a93 93 0 0 1 3.81-3.92c.41-.41.82-.81 1.24-1.2 1.09-1.04 2.21-2.06 3.36-3.07.57-.5 1.16-1.01 1.75-1.51 1.18-1.01 2.4-2 3.65-2.97.65-.52 1.3-1.02 1.96-1.51q1.83-1.38 3.75-2.73c.7-.49 1.41-.98 2.13-1.46 18.3-12.28 37.48-18.63 51.76-18.25.29 0 .58.01.86.03.26.01.52.02.77.04.36.02.71.05 1.06.08.27.03.54.05.8.08.46.06.91.12 1.35.19.84.16 1.52.65 1.94 1.31" class="primary" opacity=".5" style="mix-blend-mode:multiply" transform="translate(263.54 341.762)"/></g></g><g clip-path="url(#l)" style="display:none"><path fill="none" class="primary" style="display:none"/><path class="primary" style="display:none"/><g mask="url(#m)" style="mix-blend-mode:multiply;display:none"><path class="primary"/></g><path class="primary" style="display:none"/><g mask="url(#n)" style="mix-blend-mode:multiply;display:none"><path class="primary"/></g><path class="secondary" style="display:none"/><g mask="url(#o)" style="mix-blend-mode:multiply;display:none"><path class="secondary"/></g><g style="display:none"><path class="tertiary"/><path class="tertiary" style="mix-blend-mode:multiply"/></g><path fill="none" class="secondary" style="display:none"/></g></g></svg>